# xmcd
#
# Track frame offsets:
#	182
#	12213
#	22663
#	34054
#	45112
#	58428
#	70750
#	83293
#	95287
#	107631
#	119637
#	131189
#	142794
#	155342
#	167049
#	180524
#	193112
#	206105
#	217109
#	229146
#	241425
#	253331
#	265512
#	277965
#
# Disc length: 3871 seconds
#
# Revision: 0
# Processed by: cddbd v1.4PL0 Copyright (c) Steve Scherf et al.
# Submitted via: dBpowerAMP V4.0
#
DISCID=490f1d18
DTITLE=Lightnin' Hopkins - The Chronological Lightnin' Hopkins - 1948
DYEAR=1948
DGENRE=blues
TTITLE0=Come Back Baby
TTITLE1=Lightnin's Boogie (Sis Boogie)
TTITLE2=Baby You're Not Going To Make A Fool Out Of Me
TTITLE3=Daddy Will Be Home One Day
TTITLE4=Moonrise Blues (The Moon Is Rising)
TTITLE5=Howling Wolf Blues
TTITLE6=Morning Blues
TTITLE7=Have To Let You Go
TTITLE8=Baby Child (Mama's Baby Child)
TTITLE9=Mistreater Blues (Mistreated)
TTITLE10=My California
TTITLE11=Honey Honey Blues (Honey Babe)
TTITLE12=So Long
TTITLE13=See See Rider
TTITLE14=Changing Weather Blues (Unpredictable Woman)
TTITLE15=I Just Don't Care (Candy Kitchen)
TTITLE16=Whiskey Headed Woman (Liquor Drinkin' Woman)
TTITLE17=Abilene
TTITLE18=Shotgun Blues
TTITLE19=Rollin' Blues (Rollin' and Rollin')
TTITLE20=Till It Like It Is (Whiskey Blues)
TTITLE21=Miss Loretta (Loretta Blues) (Sugar Mama #2)
TTITLE22=Ida Mae
TTITLE23=Shining Moon
EXTD=
EXTT0=
EXTT1=
EXTT2=
EXTT3=
EXTT4=
EXTT5=
EXTT6=
EXTT7=
EXTT8=
EXTT9=
EXTT10=
EXTT11=
EXTT12=
EXTT13=
EXTT14=
EXTT15=
EXTT16=
EXTT17=
EXTT18=
EXTT19=
EXTT20=
EXTT21=
EXTT22=
EXTT23=
PLAYORDER=
